<svg width="48" height="48" viewBox="0 0 48 48" fill="none" xmlns="http://www.w3.org/2000/svg">
<g clip-path="url(#clip0_5_15)">
<path d="M23.1483 44.6024C34.4683 44.6024 43.645 35.4752 43.645 24.2163C43.645 12.9573 34.4683 3.83014 23.1483 3.83014C11.8283 3.83014 2.65161 12.9573 2.65161 24.2163C2.65161 35.4752 11.8283 44.6024 23.1483 44.6024Z" fill="white" stroke="#1A1A18" stroke-width="0.57" stroke-miterlimit="22.93"/>
<path d="M23.1483 41.7612C32.8907 41.7612 40.7884 33.906 40.7884 24.2163C40.7884 14.5265 32.8907 6.67139 23.1483 6.67139C13.406 6.67139 5.5083 14.5265 5.5083 24.2163C5.5083 33.906 13.406 41.7612 23.1483 41.7612Z" fill="#9C9D9D" stroke="#1A1A18" stroke-width="0.57" stroke-miterlimit="22.93"/>
<path fill-rule="evenodd" clip-rule="evenodd" d="M21.9653 33.1131H14.8188C14.0878 35.1125 11.7794 36.4709 9.68263 36.4709H8.36492V34.1367C7.59545 34.5959 6.74904 34.8829 5.83529 34.9116C3.36338 34.969 1.35315 33.3427 1.86292 30.7406C2.0649 29.717 2.78628 28.8273 3.60384 28.2055C5.54674 26.7322 7.95133 27.9472 7.73011 30.2144C8.32645 29.6117 8.84584 28.9325 9.22095 28.4255L11.3658 24.9529L7.27805 19.4043C5.56598 17.0797 4.22903 15.903 1.20887 15.5586L-0.0222778 15.4151L0.121997 12.947H7.93209C10.1347 12.947 11.5582 13.7793 12.8759 15.4916L12.9048 15.5203L15.2709 18.8112L23.2349 6.35568L24.6103 8.31681L25.6972 9.86657L26.207 10.5936L34.5653 22.5995L37.5662 17.9885C38.8551 15.8743 41.1346 13.1766 43.7797 12.9757C46.2516 12.7939 48.3388 14.315 47.954 16.9458C47.8001 17.9789 47.1269 18.9069 46.3478 19.567C44.5107 21.1167 42.0965 20.0835 42.1253 17.8833C41.529 18.5816 41.0192 19.3565 40.6922 19.8635L34.1517 30.0135H35.8445V36.4805H34.5268C33.2187 36.4805 31.8529 35.9734 30.8238 35.122C29.6311 36.7388 27.8805 38.4703 25.8799 38.3077C23.5523 38.1163 21.0804 36.1169 21.7729 33.6105C21.821 33.4383 21.8787 33.2757 21.9556 33.1226L21.9653 33.1131ZM27.8132 33.1131H27.467L27.5054 33.5436C27.6112 33.3905 27.717 33.247 27.8036 33.1131H27.8132Z" fill="white"/>
<path fill-rule="evenodd" clip-rule="evenodd" d="M24.6103 10.5936L21.9557 14.3724L16.2135 22.3317L20.9169 29.0856C22.3212 31.1041 24.0525 31.4294 25.8126 31.812H20.1378C19.1471 31.812 18.368 31.6207 17.8005 31.2476C17.2331 30.8745 16.8772 30.3866 16.4155 29.784L13.6743 25.8904L10.8465 29.7935C9.40373 31.8886 7.67243 33.5627 5.81609 33.601C3.99822 33.6392 2.84402 32.6061 3.16142 30.9893C3.26723 30.4536 3.6712 29.8031 4.41181 29.2482C5.5083 28.416 6.77792 29.0091 6.35471 30.4632C6.40281 29.0378 5.33517 28.8751 4.55608 29.5735C4.03669 30.0327 3.79623 30.5875 3.73852 30.9989C3.54616 32.2138 4.9312 32.9792 5.84494 32.8357C7.20113 32.6156 8.5477 31.5729 10.3271 29.1526L12.9625 24.8859L8.34571 18.6295C7.00876 16.8118 5.42174 14.7168 1.36279 14.2576H7.94174C9.73075 14.2576 10.7695 14.8985 11.8372 16.2857L15.3383 21.155L23.2926 8.70905L24.62 10.5936H24.6103Z" fill="#1A1A18"/>
<path fill-rule="evenodd" clip-rule="evenodd" d="M20.1666 24.2258L13.732 31.3146H25.3606L20.157 24.2258H20.1666ZM21.8018 18.2851L31.1797 31.3241H34.5268V35.1794C32.1511 35.1794 30.4679 33.3427 30.4679 31.8216H13.732C13.732 33.3235 12.0103 35.1794 9.67303 35.1794V31.3241H12.4912L21.7922 18.2851H21.8018Z" fill="#9C9D9D"/>
<path fill-rule="evenodd" clip-rule="evenodd" d="M24.6104 10.5936L21.9557 14.3724L32.1415 28.9134L29.1694 33.4479C28.3423 34.7107 27.2073 36.203 26.4667 36.3752L26.1012 32.606C21.5421 32.2138 22.427 36.7101 26.005 37.0066C27.6017 37.1405 29.2656 35.1986 30.314 33.5818L39.6054 19.1652C41.2405 16.6301 42.5678 15.3482 43.9144 15.0612C44.8185 14.8698 46.2324 15.5682 46.1074 16.7927C46.0689 17.2041 45.8477 17.7685 45.3571 18.2564C44.6069 18.993 43.5393 18.8782 43.5104 17.4623C43.1641 18.9356 44.4626 19.4617 45.511 18.5816C46.2228 17.9885 46.5883 17.3188 46.6652 16.7736C46.9057 15.1377 45.6938 14.1619 43.8855 14.2958C42.0003 14.4298 40.0382 16.4674 38.6916 18.6773L34.5942 24.9529L24.6104 10.5936Z" fill="#1A1A18"/>
<path fill-rule="evenodd" clip-rule="evenodd" d="M16.4059 29.7839L20.9169 29.0856C22.3212 31.1041 25.9473 31.5155 28.6693 31.812H20.1282C19.1375 31.812 18.3584 31.6207 17.7909 31.2476C17.2234 30.8745 16.8676 30.3866 16.4059 29.7839Z" fill="#1A1A18"/>
</g>
<defs>
<clipPath id="clip0_5_15">
<rect width="48" height="48" fill="white"/>
</clipPath>
</defs>
</svg>
