<svg width="16" height="16" viewBox="0 0 16 16" fill="none" xmlns="http://www.w3.org/2000/svg">
<path fill-rule="evenodd" clip-rule="evenodd" d="M6.66671 1.33334C3.72119 1.33334 1.33337 3.72116 1.33337 6.66668C1.33337 9.61222 3.72119 12 6.66671 12C7.77757 12 8.80998 11.6599 9.66426 11.0785L12.7379 14.1368C13.1297 14.4276 13.6851 14.3958 14.0405 14.0404C14.431 13.6499 14.431 13.0168 14.0405 12.6263L11.0785 9.66422C11.6599 8.80995 12 7.77754 12 6.66668C12 3.72116 9.61225 1.33334 6.66671 1.33334ZM6.66671 3.33334C4.82576 3.33334 3.33337 4.82573 3.33337 6.66668C3.33337 8.5076 4.82576 10 6.66671 10C8.50763 10 10 8.5076 10 6.66668C10 4.82573 8.50763 3.33334 6.66671 3.33334Z" fill="#005495"/>
</svg>
