<svg width="48" height="48" viewBox="0 0 48 48" fill="none" xmlns="http://www.w3.org/2000/svg">
<path d="M14.3047 6.02302C15.968 4.7282 18.1439 4.01172 20.3064 4.01172C21.5992 4.01172 22.6464 4.45592 23.4396 5.16146C23.654 5.3524 23.8448 5.55748 24.0142 5.77048C24.1836 5.55748 24.3742 5.3524 24.5888 5.16146C25.3818 4.45592 26.429 4.01172 27.7218 4.01172C29.8844 4.01172 32.0604 4.7282 33.7236 6.02302C35.0176 7.0304 36.032 8.41904 36.4294 10.0988C37.2698 10.2377 38.0164 10.666 38.6202 11.2326C39.5818 12.1349 40.2656 13.4385 40.6962 14.7801C41.1334 16.142 41.3522 17.6729 41.2862 19.1425C41.2524 19.8948 41.1422 20.6616 40.9312 21.3958C40.9752 21.4148 41.019 21.4346 41.0626 21.455C41.803 21.8042 42.4014 22.3508 42.8516 23.0762C43.7018 24.4456 44.001 26.4188 44.001 28.9326C44.001 31.8216 42.8968 33.7834 41.4764 35.0018C40.6522 35.7088 39.7426 36.147 38.9372 36.381C38.6582 37.7662 37.9604 39.3272 36.899 40.6552C35.4534 42.4638 33.2064 43.9922 30.185 43.9922C27.7644 43.9922 25.859 42.6536 24.635 41.3702C24.4112 41.1354 24.2038 40.8964 24.0142 40.6586C23.8244 40.8964 23.6172 41.1354 23.3932 41.3702C22.1692 42.6536 20.2638 43.9922 17.8432 43.9922C14.8219 43.9922 12.575 42.4638 11.1294 40.6552C10.0679 39.3272 9.37014 37.7662 9.09114 36.381C8.28574 36.147 7.37612 35.7088 6.552 35.0018C5.13162 33.7834 4.02734 31.8216 4.02734 28.9326C4.02734 26.4188 4.32646 24.4456 5.17668 23.0762C5.62696 22.3508 6.22542 21.8042 6.96572 21.455C7.00934 21.4346 7.05314 21.4148 7.09712 21.3958C6.88612 20.6616 6.77602 19.8948 6.7422 19.1425C6.67616 17.6729 6.8949 16.142 7.33204 14.7801C7.7627 13.4385 8.44648 12.1349 9.40804 11.2326C10.0118 10.666 10.7586 10.2377 11.5989 10.0988C11.9964 8.41904 13.0106 7.0304 14.3047 6.02302ZM16.1475 8.39028C15.056 9.24 14.4169 10.3719 14.4169 11.6751C14.4169 12.1574 14.185 12.6102 13.7938 12.8921C13.4025 13.174 12.8996 13.2506 12.4422 13.098C12.1674 13.0063 11.8782 13.0287 11.4609 13.4203C10.9984 13.8542 10.5276 14.6406 10.1885 15.697C9.8559 16.7332 9.68976 17.9084 9.73918 19.0078C9.78922 20.121 10.0539 21.043 10.4705 21.6684C10.5402 21.7732 10.5956 21.8846 10.6364 22H12.8006C15.8089 22 18.2729 24.3306 18.4857 27.2846C19.9597 27.8742 21.001 29.3154 21.001 31C21.001 33.2092 19.2101 35 17.001 35C14.7918 35 13.001 33.2092 13.001 31C13.001 29.3326 14.0212 27.9034 15.4716 27.3028C15.2795 26 14.1568 25 12.8006 25H7.60058C7.58376 25 7.56702 24.9998 7.55034 24.9992C7.2518 25.6952 7.02734 26.898 7.02734 28.9326C7.02734 30.9744 7.77046 32.0944 8.50536 32.725C9.31182 33.4168 10.1972 33.596 10.4537 33.596C11.2821 33.596 11.9537 34.2676 11.9537 35.096C11.9537 35.9342 12.4173 37.4616 13.4728 38.7822C14.4904 40.0552 15.9382 40.9922 17.8432 40.9922C19.1174 40.9922 20.291 40.2762 21.2222 39.2998C21.6758 38.8242 22.028 38.3302 22.259 37.9294C22.3748 37.7286 22.4496 37.5694 22.4908 37.4638L22.5012 37.4366V32.5258C22.501 32.5172 22.501 32.5086 22.501 32.5C22.501 32.4914 22.501 32.4828 22.5012 32.4742V18.5H20.7102C20.1168 19.9659 18.6797 21 17.001 21C14.7918 21 13.001 19.2091 13.001 17C13.001 14.7909 14.7918 13 17.001 13C18.6797 13 20.1168 14.0341 20.7102 15.5H22.5012V10.4472L22.5008 10.4245C22.5002 10.4017 22.499 10.363 22.4962 10.3108C22.4906 10.2059 22.4788 10.0489 22.455 9.8579C22.4064 9.46808 22.3114 8.97502 22.1348 8.50336C21.9556 8.02542 21.7226 7.64938 21.4454 7.40282C21.1994 7.18386 20.861 7.01172 20.3064 7.01172C18.7741 7.01172 17.2553 7.52792 16.1475 8.39028ZM25.5272 34V37.4366L25.5374 37.4638C25.5788 37.5694 25.6536 37.7286 25.7692 37.9294C26.0002 38.3302 26.3524 38.8242 26.806 39.2998C27.7374 40.2762 28.911 40.9922 30.185 40.9922C32.09 40.9922 33.538 40.0552 34.5556 38.7822C35.611 37.4616 36.0746 35.9342 36.0746 35.096C36.0746 34.2676 36.7462 33.596 37.5746 33.596C37.8312 33.596 38.7164 33.4168 39.523 32.725C40.2578 32.0944 41.001 30.9744 41.001 28.9326C41.001 26.5158 40.6842 25.2728 40.303 24.6586C40.1374 24.392 39.9662 24.2548 39.7828 24.1684C39.5798 24.0726 39.2766 24 38.8062 24C38.2532 24 37.745 23.6956 37.4838 23.208C37.2228 22.7204 37.2512 22.1288 37.5578 21.6684C37.9744 21.043 38.2392 20.121 38.2892 19.0078C38.3386 17.9084 38.1724 16.7332 37.8398 15.697C37.5008 14.6406 37.03 13.8542 36.5674 13.4203C36.1502 13.0287 35.861 13.0063 35.5862 13.098C35.1288 13.2506 34.6258 13.174 34.2346 12.8921C33.8432 12.6102 33.6114 12.1574 33.6114 11.6751C33.6114 10.3719 32.9722 9.24 31.8808 8.39028C30.773 7.52792 29.2542 7.01172 27.7218 7.01172C27.1674 7.01172 26.829 7.18386 26.5828 7.40282C26.3058 7.64938 26.0726 8.02542 25.8936 8.50336C25.717 8.97502 25.622 9.46808 25.5732 9.8579C25.5494 10.0489 25.5378 10.2059 25.5322 10.3108C25.5294 10.363 25.5282 10.4017 25.5276 10.4245L25.5272 10.4472V31H26.801C28.2922 31 29.501 29.7912 29.501 28.3V24.7092C28.035 24.1158 27.001 22.6786 27.001 21C27.001 18.7909 28.7918 17 31.001 17C33.2102 17 35.001 18.7909 35.001 21C35.001 22.6786 33.9668 24.1158 32.501 24.7092V28.3C32.501 31.448 29.949 34 26.801 34H25.5272ZM17.001 16C16.4487 16 16.001 16.4477 16.001 17C16.001 17.5523 16.4487 18 17.001 18C17.5533 18 18.001 17.5523 18.001 17C18.001 16.4477 17.5533 16 17.001 16ZM16.001 31C16.001 31.5522 16.4487 32 17.001 32C17.5533 32 18.001 31.5522 18.001 31C18.001 30.4478 17.5533 30 17.001 30C16.4487 30 16.001 30.4478 16.001 31ZM30.001 21C30.001 21.5522 30.4486 22 31.001 22C31.5532 22 32.001 21.5522 32.001 21C32.001 20.4478 31.5532 20 31.001 20C30.4486 20 30.001 20.4478 30.001 21Z" fill="white"/>
</svg>
