<svg width="39" height="36" viewBox="0 0 39 36" fill="none" xmlns="http://www.w3.org/2000/svg">
<path d="M12 9.5036V20.498C12 21.6838 13.3109 22.4006 14.3092 21.761L23.5458 15.8426C24.16 15.4492 24.1598 14.552 23.5458 14.1586L14.3092 8.2406C13.3108 7.60094 12 8.31788 12 9.5036ZM6.5 0C2.91014 0 0 2.91014 0 6.5V24.5C0 28.0898 2.91016 31 6.5 31H27.5C31.0898 31 34 28.0898 34 24.5V6.5C34 2.91014 31.0898 0 27.5 0H6.5ZM3 6.5C3 4.567 4.567 3 6.5 3H27.5C29.433 3 31 4.567 31 6.5V24.5C31 26.433 29.433 28 27.5 28H6.5C4.567 28 3 26.433 3 24.5V6.5ZM6.02148 33C7.17656 34.8042 9.19846 36 11.4997 36H28.4996C34.2986 36 38.9996 31.299 38.9996 25.5V11.5C38.9996 9.19876 37.8038 7.17686 35.9996 6.02178V25.5C35.9996 29.6422 32.6418 33 28.4996 33H6.02148Z" fill="#005495"/>
</svg>
