<svg width="33" height="40" viewBox="0 0 33 40" fill="none" xmlns="http://www.w3.org/2000/svg">
<path d="M7.5 19C6.67158 19 6 19.6716 6 20.5C6 21.3284 6.67158 22 7.5 22C8.32842 22 9 21.3284 9 20.5C9 19.6716 8.32842 19 7.5 19ZM6 26.5C6 25.6716 6.67158 25 7.5 25C8.32842 25 9 25.6716 9 26.5C9 27.3284 8.32842 28 7.5 28C6.67158 28 6 27.3284 6 26.5ZM12 20.5C12 19.6716 12.6716 19 13.5 19H19.6076C20.436 19 21.1076 19.6716 21.1076 20.5C21.1076 21.3284 20.436 22 19.6076 22H13.5C12.6716 22 12 21.3284 12 20.5ZM13.5 25C12.6716 25 12 25.6716 12 26.5C12 27.3284 12.6716 28 13.5 28H19.6076C20.436 28 21.1076 27.3284 21.1076 26.5C21.1076 25.6716 20.436 25 19.6076 25H13.5ZM4.5 0C2.01472 0 0 2.01472 0 4.5V30.5C0 32.9852 2.01472 35 4.5 35H22.5C24.9852 35 27 32.9852 27 30.5V13.7377C27 12.5442 26.5258 11.3996 25.682 10.5557L16.4442 1.31802C15.6004 0.4741 14.4558 0 13.2624 0H4.5ZM3 4.5C3 3.67158 3.67158 3 4.5 3H13.0078V9.49506C13.0078 11.9803 15.0226 13.9951 17.5078 13.9951H24V30.5C24 31.3284 23.3284 32 22.5 32H4.5C3.67158 32 3 31.3284 3 30.5V4.5ZM16.0078 9.49506V5.12418L21.8786 10.9951H17.5078C16.6794 10.9951 16.0078 10.3235 16.0078 9.49506ZM9.50176 40C7.54242 40 5.87556 38.7478 5.25782 37H22.5018C26.0916 37 29.0018 34.0898 29.0018 30.5V13.8738L30.6838 15.5558C31.5276 16.3996 32.0018 17.5442 32.0018 18.7378V30.5C32.0018 35.7468 27.7484 40 22.5018 40H9.50176Z" fill="#005495"/>
</svg>
